<?xml version="1.0" encoding="utf-8"?>
<!-- Svg Vector Icons : http://www.onlinewebfonts.com/icon -->
<!DOCTYPE svg PUBLIC "-//W3C//DTD SVG 1.1//EN" "http://www.w3.org/Graphics/SVG/1.1/DTD/svg11.dtd">
<svg version="1.1" xmlns="http://www.w3.org/2000/svg" xmlns:xlink="http://www.w3.org/1999/xlink" x="0px" y="0px" viewBox="0 0 256 256" enable-background="new 0 0 256 256" xml:space="preserve">
<metadata> Svg Vector Icons : http://www.onlinewebfonts.com/icon </metadata>
<g><g><g><path fill="#ffffff" d="M119.4,18.3c-0.7,0.1-3.4,0.4-5.8,0.7c-13.9,1.6-30,6.8-42.6,13.9C38.4,51.2,16.3,83.3,11,120c-2.5,17.8-0.4,38.2,5.9,55.5c4.3,11.9,12.5,26.1,20.6,35.7c4.8,5.8,13.7,14.3,19.2,18.4c6.1,4.6,12.2,8.3,13.5,8.3c1.7,0,3.8-2.4,3.8-4.2c0-1.8-0.7-2.5-6.7-6.3C44.9,213,28,189.7,21.5,164.1c-4.8-18.8-4.8-37.6,0-56.4c3.6-13.8,11-28.9,20.2-40.4C44.9,63,54.9,53,59.1,49.7c8.7-6.9,21.7-14.1,31.8-17.6c5.9-2.1,14.6-4.2,21.4-5.2c7.4-1.2,24-1.2,31.4,0c11.6,1.8,22.3,5,32.2,9.8c13,6.2,21.4,12.3,31.7,22.8c16,16.3,26.3,38,29.7,62.2c0.8,5.6,0.8,23.4,0,28.4c-3.4,21.5-10.7,38.7-23.1,54.2c-7.1,8.9-18.4,18.9-28.1,24.9c-4.6,2.8-5.4,4.9-3,7.4c2.2,2.2,3.2,1.9,10.3-2.9c17.2-11.6,31-27.4,40.3-46.3c11.9-24.1,15.1-50.8,9.4-76.9c-10.1-46-48.7-82.8-95-90.7C139,18.3,125.8,17.6,119.4,18.3z"/><path fill="#ffffff" d="M115.6,46.4c-15.6,2.4-29.6,8.3-42.2,17.8c-4.9,3.7-13.7,12.5-17.3,17.3c-26.8,35.5-24.3,83.1,6.1,116.3C68.9,205,81.1,214,84.1,214c2.4,0,3.8-1.6,3.6-4c-0.1-1.9-0.2-2-8.3-7.6c-5.5-3.8-14.9-13.1-19-18.9c-9.3-13.2-14.3-27.9-15-44.3c-1.5-36.9,20.5-69.4,55.2-81.4c8.2-2.9,14.8-4,24.5-4.3c11.5-0.4,18.6,0.6,28.8,3.9c30.7,9.9,52.2,36.4,56.1,69.1c0.7,5.7,0.3,18.4-0.7,23.9c-4.1,22.5-16.9,41.6-36.4,54.5c-2.2,1.4-4.2,3-4.4,3.5c-1.3,2.5,0.4,5.5,3.2,5.5c1.3,0,2.6-0.6,5.8-2.7c19.1-12.5,32.9-32.2,38.4-55c1.9-7.9,2.5-13.9,2.2-23.4c-0.4-13.9-3.1-24.6-9.2-36.8c-4.4-8.7-9.2-15.4-16.3-22.8c-13.7-14.1-30.1-22.9-49.6-26.6C137.7,45.8,121.3,45.5,115.6,46.4z"/><path fill="#ffffff" d="M121.1,73.4c-26.5,3.4-48,22.6-54.6,48.9c-1,3.9-1.1,5.4-1.1,13.6c0,10.5,0.6,14,4,22.7c4.4,11.3,13.5,22.6,23.5,29.3c4.6,3,5.9,3.3,7.9,1.3c2.4-2.4,1.6-4.5-2.7-7.3c-11.7-7.4-19.8-18.6-23.5-32.3c-1.2-4.2-1.2-5.2-1.2-13.7c0-8.5,0.1-9.5,1.2-13.7c2.5-9.5,6.7-17.1,12.9-23.7c5.3-5.6,9-8.4,15.8-11.8c21.3-10.6,47.3-6.4,63.9,10.2c9.1,9.1,14.5,20.8,15.6,34.3c1.8,20.1-7.1,38.6-23.8,50c-4.4,3-5.4,4.3-4.9,6.4c0.4,1.5,2.3,3,3.8,3c1.5,0,7.1-3.6,11.3-7.3c18.9-16.7,26.3-42.4,19-65.6c-5.9-18.7-21.1-34.4-39.5-41C140.3,73.7,129.1,72.4,121.1,73.4z"/><path fill="#ffffff" d="M120.8,101.3c-1.8,0.4-5.3,1.7-7.9,3c-7.8,3.8-14.7,11.1-17.9,19.1c-5.9,14.9-0.4,32.4,13.3,41.8c2.9,2,5,2.1,6.5,0.3c2.1-2.4,1.5-4.3-2.1-6.7c-5.4-3.7-9.5-9.2-11.4-15.5c-1.1-3.5-1.1-10.4,0-14.4c2.6-10,10.4-17.6,20.3-19.6c14.6-3,28.3,4.7,32.6,18.4c1.5,4.7,1.4,12.1-0.1,16.7c-1.9,5.8-5.7,10.7-10.8,14.2c-3.6,2.4-4.4,4.6-2.6,6.8c2.3,2.9,5.6,1.6,11.6-4.3c4.7-4.6,7.1-8.6,9.2-14.8c1.3-4,1.5-4.9,1.5-9.9c0-6.3-0.6-9.5-3.2-14.8c-2.1-4.4-3.9-7.1-7.2-10.4C144.3,102.6,132.2,98.9,120.8,101.3z"/><path fill="#ffffff" d="M125.3,120.4c-4.5,0.9-9.4,4.8-11.5,9.2c-1.1,2.2-1.3,3.2-1.3,6.3c0,4.6,1.4,7.8,4.8,11c6.8,6.4,15.6,6.1,21.9-0.7c5.9-6.4,5.9-14.3,0-20.7C135.4,121.4,130.1,119.5,125.3,120.4z M132.6,129.3c2.4,1.6,3.3,3.7,3.1,7.1c-0.3,4.8-2.9,7.2-7.8,7.2c-3.5,0-5.4-1.2-6.7-3.8c-1.9-3.7-0.8-8.7,2.3-10.6C125.7,127.8,130.5,127.9,132.6,129.3z"/></g></g></g>
</svg>