<?xml version="1.0" encoding="UTF-8"?>
<svg version="1.1" xmlns="http://www.w3.org/2000/svg" width="273" height="273">
<path d="M0 0 C0 -0.99 0 -1.98 0 -3 C2.66666667 -1.66666667 5.33333333 -0.33333333 8 1 C8 2.32 8 3.64 8 5 C14.86557312 14.83578561 24.55744395 21.59575046 36 25 C39.02740365 25.53451192 41.92452757 25.80158242 45 26 C44.83886719 25.46503906 44.67773438 24.93007812 44.51171875 24.37890625 C43.8971613 21.5219178 43.83060199 18.85916175 43.8125 15.9375 C43.79832031 14.89464844 43.78414063 13.85179687 43.76953125 12.77734375 C44 10 44 10 46 7 C46.32871094 7.721875 46.65742187 8.44375 46.99609375 9.1875 C48.478507 12.08001365 49.86560347 14.54221005 52 17 C55.37367296 17.93256001 57.4611611 17.53618771 61 17 C62.32 14.36 63.64 11.72 65 9 C65.99 9 66.98 9 68 9 C68.99989549 15.59390542 69.00925164 20.61767125 67 27 C77.52951672 24.8517833 86.16384335 22.10115578 95 16 C95.99 15.67 96.98 15.34 98 15 C98.33 14.34 98.66 13.68 99 13 C100 11 100 11 103 10 C104.12516085 8.16715557 104.12516085 8.16715557 105 6 C105.66666667 4.66666667 106.33333333 3.33333333 107 2 C106.01 1.01 106.01 1.01 105 0 C108 -1 111 -2 114 -3 C114 -2.34 114 -1.68 114 -1 C114.98097656 -1.25394531 115.96195313 -1.50789063 116.97265625 -1.76953125 C152.0838989 -10.77106422 152.0838989 -10.77106422 169 -5 C169.99 -4.34 170.98 -3.68 172 -3 C172 -2.34 172 -1.68 172 -1 C170.9275 -0.855625 169.855 -0.71125 168.75 -0.5625 C164.79841044 -0.06395798 164.79841044 -0.06395798 161 1 C160.67 1.99 160.34 2.98 160 4 C159.34 4 158.68 4 158 4 C157.566875 4.87591797 157.566875 4.87591797 157.125 5.76953125 C156.43781616 7.13196865 155.73350293 8.48614896 155 9.82421875 C151.91575394 15.57103661 149.56662318 21.46075597 150.375 28.0625 C150.58125 28.701875 150.7875 29.34125 151 30 C150.443125 29.484375 149.88625 28.96875 149.3125 28.4375 C147.09969173 26.7913005 147.09969173 26.7913005 144.5 26.9375 C140.87971013 28.4761232 139.78654902 30.55923893 138 34 C137.66290938 36.75258812 137.66290938 36.75258812 138 39 C137.0409375 37.948125 137.0409375 37.948125 136.0625 36.875 C132.72809093 34.83352506 132.20092518 34.75529528 128.5625 35.4375 C124.09152873 36.72448507 121.17737583 38.52001695 118 42 C116.70340487 44.64721506 115.86542537 47.16332794 115 50 C114.319375 49.34 113.63875 48.68 112.9375 48 C109.21147617 45.46313271 107.44623109 45.47248106 103 46 C98.39871524 47.2541255 95.36700901 48.6235331 92 52 C91.34 52 90.68 52 90 52 C89.67 53.65 89.34 55.3 89 57 C88.67 56.484375 88.34 55.96875 88 55.4375 C85.91977473 53.6544107 85.91977473 53.6544107 82.375 53.9375 C76.38227561 54.93444121 71.008345 58.49290857 67.23828125 63.19921875 C66.82964844 63.79347656 66.42101562 64.38773437 66 65 C66.99 66.485 66.99 66.485 68 68 C68 69.32 68 70.64 68 72 C66.35 71.34 64.7 70.68 63 70 C63 69.01 63 68.02 63 67 C62.01 67 61.02 67 60 67 C59.71125 67.7425 59.4225 68.485 59.125 69.25 C58.17697356 71.56739797 57.15154089 73.77917115 56 76 C55.5978125 75.13375 55.5978125 75.13375 55.1875 74.25 C53.23056191 70.5421173 52.07061787 68.35687262 48 67 C48 67.99 48 68.98 48 70 C46.35 70.33 44.7 70.66 43 71 C43.66666667 68.33333333 44.33333333 65.66666667 45 63 C37.48787195 56.46157665 37.48787195 56.46157665 28 54 C27.01 54.66 26.02 55.32 25 56 C24.54625 55.0925 24.0925 54.185 23.625 53.25 C20.63270208 48.75622875 16.03410376 47.37082518 11 46 C7.20370711 45.41218275 7.20370711 45.41218275 4 46 C2.18523997 47.39585785 2.18523997 47.39585785 1 49 C0.34 49 -0.32 49 -1 49 C-1.37125 47.948125 -1.7425 46.89625 -2.125 45.8125 C-4.35141531 40.64888891 -7.97707338 37.90825277 -13.0625 35.625 C-17.26139898 34.73161724 -20.00315355 35.66771785 -24 37 C-24.2475 35.906875 -24.495 34.81375 -24.75 33.6875 C-25.70285356 30.04069705 -25.70285356 30.04069705 -27.875 28 C-29.92472936 26.8054605 -29.92472936 26.8054605 -32.0625 27.25 C-32.701875 27.4975 -33.34125 27.745 -34 28 C-35.485 28.495 -35.485 28.495 -37 29 C-36.9071875 27.081875 -36.9071875 27.081875 -36.8125 25.125 C-36.8666872 16.49568768 -39.16660614 9.89168601 -45.16796875 3.625 C-49.01070154 0.21652059 -52.97647792 -1.26124675 -58 -2 C-56.49822813 -5.00354375 -54.16728791 -5.26347525 -51.1015625 -6.3359375 C-34.24315851 -11.66294248 -16.16478512 -5.00574129 0 0 Z " fill="#F6F6F6" transform="translate(79,102)"/>
<path d="M0 0 C3.27286682 2.7819368 4.96427697 6.27954067 7 10 C10.3 10 13.6 10 17 10 C17 10.66 17 11.32 17 12 C8.57142857 13.28571429 8.57142857 13.28571429 4 12 C4.33 11.01 4.66 10.02 5 9 C3.02 8.34 1.04 7.68 -1 7 C-0.67 4.69 -0.34 2.38 0 0 Z " fill="#F3F3F3" transform="translate(124,109)"/>
<path d="M0 0 C2.56864728 1.28432364 2.946539 2.36634751 4 5 C4 6.32 4 7.64 4 9 C1.525 8.01 1.525 8.01 -1 7 C-0.67 6.34 -0.34 5.68 0 5 C-0.32380126 3.66431979 -0.65657551 2.33076989 -1 1 C-0.67 0.67 -0.34 0.34 0 0 Z " fill="#F4F4F4" transform="translate(143,165)"/>
<path d="M0 0 C1.4540625 0.0309375 1.4540625 0.0309375 2.9375 0.0625 C1.9475 0.3925 0.9575 0.7225 -0.0625 1.0625 C-0.0625 2.0525 -0.0625 3.0425 -0.0625 4.0625 C-1.7125 4.3925 -3.3625 4.7225 -5.0625 5.0625 C-3.9375 0.08035714 -3.9375 0.08035714 0 0 Z " fill="#F4F4F4" transform="translate(127.0625,167.9375)"/>
<path d="M0 0 C2.66666667 1.33333333 5.33333333 2.66666667 8 4 C4.01803543 5.05404945 1.01804691 4.84098656 -3 4 C-2.01 3.67 -1.02 3.34 0 3 C0 2.01 0 1.02 0 0 Z " fill="#F8F7F7" transform="translate(79,99)"/>
<path d="M0 0 C0.66 0 1.32 0 2 0 C2 0.66 2 1.32 2 2 C4.64 1.67 7.28 1.34 10 1 C9.67 1.66 9.34 2.32 9 3 C7.00390625 3.484375 7.00390625 3.484375 4.5625 3.75 C3.35787109 3.89695312 3.35787109 3.89695312 2.12890625 4.046875 C0 4 0 4 -2 2 C-1.34 1.34 -0.68 0.68 0 0 Z " fill="#F5F5F5" transform="translate(191,99)"/>
<path d="M0 0 C1.65 0 3.3 0 5 0 C4.40072174 3.35595828 3.15377564 5.37801226 1 8 C0.34 7.67 -0.32 7.34 -1 7 C-0.01 5.35 0.98 3.7 2 2 C1.34 1.34 0.68 0.68 0 0 Z " fill="#F3F3F3" transform="translate(184,102)"/>
</svg>
