<svg xmlns="http://www.w3.org/2000/svg" xmlns:xlink="http://www.w3.org/1999/xlink" viewBox="0 0 512 512" width="317" height="317" style="width: 100%; height: 100%; transform: translate3d(0px, 0px, 0px); content-visibility: visible; background-color: transparent;" preserveAspectRatio="xMidYMid meet"><defs><clipPath id="__lottie_element_33"><rect width="512" height="512" x="0" y="0"/></clipPath><radialGradient id="__lottie_element_40" spreadMethod="pad" gradientUnits="userSpaceOnUse" cx="176.20925903320312" cy="-128.8640899658203" r="213.125667853475" fx="176.20925903320312" fy="-128.8640899658203"><stop offset="0%" stop-color="rgb(255,255,255)"/><stop offset="43%" stop-color="rgb(205,209,222)"/><stop offset="100%" stop-color="rgb(155,162,189)"/></radialGradient><mask id="__lottie_element_42"><path fill="url(#__lottie_element_41)" d=" M15.994500160217285,20.937999725341797 C-19.576000213623047,39.55860137939453 -82.01000213623047,66.14099884033203 -97.52050018310547,94.98200225830078 C-106.7782974243164,109.70929718017578 -109.46499633789062,124.77059936523438 -114.64900207519531,146.00900268554688 C-120.89540100097656,171.68780517578125 -126.9397964477539,193.22079467773438 -114.65080261230469,203.23880004882812 C-105.23380279541016,210.914794921875 -91.28919982910156,204.57730102539062 -82.8280029296875,198.50050354003906 C-59.110198974609375,181.40370178222656 -18.360000610351562,144.66600036621094 3.672499895095825,133.96949768066406 C17.2091007232666,127.39720153808594 27.25029945373535,137.3321075439453 39.29899978637695,143.92730712890625 C39.29899978637695,143.92730712890625 69.65869903564453,161.88980102539062 69.65869903564453,161.88980102539062 C82.81929779052734,169.93789672851562 99.06900024414062,182.3155975341797 108.0425033569336,182.3524932861328 C124.57879638671875,181.79710388183594 129.04330444335938,164.76910400390625 124.07450103759766,142.00799560546875 C120.40470123291016,126.62570190429688 111.05770111083984,96.08329772949219 106.75170135498047,68.59729766845703 C105.1156997680664,58.15230178833008 103.87200164794922,51.06650161743164 105.16200256347656,47.78150177001953 C108.18800354003906,40.06650161743164 117.3125991821289,32.4026985168457 128.7530059814453,19.945999145507812 C141.8032989501953,6.660699844360352 159.02569580078125,-7.564499855041504 170.07249450683594,-21.684200286865234 C174.00680541992188,-26.510799407958984 180.8350067138672,-33.80950164794922 180.45399475097656,-40.73149871826172 C179.87899780273438,-51.201499938964844 172.27439880371094,-57.060699462890625 160.2310028076172,-58.68949890136719 C145.093505859375,-60.763301849365234 80.16950225830078,-66.17400360107422 74.45050048828125,-68.54299926757812 C68.96649932861328,-70.94999694824219 64.86959838867188,-75.17050170898438 59.62900161743164,-92.03099822998047 C50.02199935913086,-121.32240295410156 43.087501525878906,-144.2740020751953 32.06650161743164,-172.74549865722656 C26.441099166870117,-189.34649658203125 20.080900192260742,-196.23399353027344 8.329999923706055,-196.57150268554688 C-4.8420000076293945,-196.95309448242188 -10.743000030517578,-187.11000061035156 -16.4060001373291,-170.62899780273438 C-22.729000091552734,-150.34500122070312 -40.724998474121094,-104.49849700927734 -49.654998779296875,-83.6865005493164 C-53.387001037597656,-75.25849914550781 -59.7599983215332,-74.3395004272461 -67.77100372314453,-74.00650024414062 C-99.21649932861328,-72.83209991455078 -147.72300720214844,-75.9365005493164 -175.98300170898438,-72.88150024414062 C-190.2100067138672,-71.34549713134766 -201.91000366210938,-65.50550079345703 -200.4510040283203,-48.204498291015625 C-199.8280029296875,-40.80350112915039 -195.1114959716797,-32.25600051879883 -188.19749450683594,-27.089000701904297 C-172.67149353027344,-13.6850004196167 -137.03500366210938,17.018999099731445 -116.61799621582031,21.242000579833984 C-102.88899993896484,24.084999084472656 -95.70999908447266,24.231000900268555 -78.21700286865234,21.1200008392334 C-60.7239990234375,18.009000778198242 -34.85770034790039,12.122699737548828 -6.35099983215332,6.682000160217285 C7.703800201416016,4.000800132751465 23.480499267578125,-0.4819999933242798 27.013500213623047,6.670000076293945 C29.220500946044922,11.142000198364258 26.37849998474121,16.47100067138672 15.994500160217285,20.937999725341797z"/></mask><radialGradient id="__lottie_element_41" spreadMethod="pad" gradientUnits="userSpaceOnUse" cx="176.20925903320312" cy="-128.8640899658203" r="213.125667853475" fx="176.20925903320312" fy="-128.8640899658203"><stop stop-color="rgb(255,255,255)" offset="0%" stop-opacity="1"/><stop stop-color="rgb(255,255,255)" offset="54%" stop-opacity="0.5"/><stop stop-color="rgb(255,255,255)" offset="100%" stop-opacity="0"/></radialGradient><linearGradient id="__lottie_element_46" spreadMethod="pad" gradientUnits="userSpaceOnUse" x1="-133" y1="186" x2="201" y2="-57"><stop offset="0%" stop-color="rgb(46,192,255)"/><stop offset="22%" stop-color="rgb(83,148,255)"/><stop offset="50%" stop-color="rgb(119,105,255)"/><stop offset="75%" stop-color="rgb(178,96,236)"/><stop offset="100%" stop-color="rgb(238,86,217)"/></linearGradient><linearGradient id="__lottie_element_50" spreadMethod="pad" gradientUnits="userSpaceOnUse"><stop/><stop/><stop/><stop/><stop/><stop/><stop/><stop/><stop/><stop/><stop/><stop/><stop/><stop/><stop/><stop/><stop/><stop/><stop/></linearGradient><linearGradient id="__lottie_element_54" spreadMethod="pad" gradientUnits="userSpaceOnUse"><stop/><stop/><stop/><stop/><stop/><stop/><stop/><stop/><stop/><stop/><stop/><stop/><stop/><stop/><stop/><stop/><stop/><stop/><stop/></linearGradient><linearGradient id="__lottie_element_58" spreadMethod="pad" gradientUnits="userSpaceOnUse"><stop/><stop/><stop/><stop/><stop/><stop/><stop/><stop/><stop/><stop/><stop/><stop/><stop/><stop/><stop/><stop/><stop/><stop/><stop/></linearGradient><linearGradient id="__lottie_element_62" spreadMethod="pad" gradientUnits="userSpaceOnUse" x1="-5" y1="212" x2="5" y2="-205"><stop offset="0%" stop-color="rgb(16,53,161)"/><stop offset="3%" stop-color="rgb(31,79,208)"/><stop offset="5%" stop-color="rgb(46,105,255)"/><stop offset="16%" stop-color="rgb(57,125,237)"/><stop offset="34%" stop-color="rgb(67,146,219)"/><stop offset="41%" stop-color="rgb(56,90,182)"/><stop offset="48%" stop-color="rgb(45,35,144)"/><stop offset="50%" stop-color="rgb(59,47,176)"/><stop offset="57%" stop-color="rgb(74,60,209)"/><stop offset="61%" stop-color="rgb(96,82,232)"/><stop offset="65%" stop-color="rgb(119,105,255)"/><stop offset="68%" stop-color="rgb(107,119,241)"/><stop offset="71%" stop-color="rgb(96,133,228)"/><stop offset="72%" stop-color="rgb(76,88,203)"/><stop offset="79%" stop-color="rgb(56,43,178)"/><stop offset="84%" stop-color="rgb(113,48,185)"/><stop offset="90%" stop-color="rgb(170,53,191)"/><stop offset="95%" stop-color="rgb(203,90,223)"/><stop offset="100%" stop-color="rgb(236,128,255)"/></linearGradient></defs><g clip-path="url(#__lottie_element_33)"><g style="display: block;" transform="matrix(1,0,0,1,256,256)" opacity="1"><path fill="url(#__lottie_element_62)" fill-opacity="1" d=" M13.850000381469727,-208 C13.850000381469727,-208 -4.900000095367432,-205.4250030517578 -4.900000095367432,-205.4250030517578 C-4.900000095367432,-205.4250030517578 -26.924999237060547,-192.125 -31.549999237060547,-179.52499389648438 C-36.35860061645508,-166.44180297851562 -68.69999694824219,-84.375 -68.69999694824219,-84.375 C-68.69999694824219,-84.375 -78.82499694824219,-82.92500305175781 -97.57499694824219,-81.92500305175781 C-116.32499694824219,-80.92500305175781 -147.10000610351562,-85.0999984741211 -167.35000610351562,-84.4000015258789 C-184.5924072265625,-83.71160125732422 -204.17640686035156,-80.77300262451172 -208.375,-58.150001525878906 C-211.5749969482422,-40.82500076293945 -185.1750030517578,-24.174999237060547 -169.1999969482422,-12.024999618530273 C-152.6894073486328,0.5264000296592712 -141.6999969482422,5.574999809265137 -131.1999969482422,8.824999809265137 C-120.69999694824219,12.074999809265137 -96.07499694824219,10.875 -96.07499694824219,10.875 C-96.07499694824219,10.875 -27.424999237060547,-2.325000047683716 -19.174999237060547,-3.825000047683716 C-10.925000190734863,-5.324999809265137 7.607999801635742,-9.591400146484375 7.574999809265137,-2.325000047683716 C7.550000190734863,4.300000190734863 -65.0999984741211,38.79999923706055 -77.19999694824219,46.099998474121094 C-87.27559661865234,52.02859878540039 -109.17500305175781,64.625 -117.92500305175781,90.625 C-127.98619842529297,120.52200317382812 -134,150.5500030517578 -134,150.5500030517578 C-134,150.5500030517578 -136.0749969482422,160.875 -133.5749969482422,169.375 C-131.0749969482422,177.875 -116.6500015258789,191.3000030517578 -116.6500015258789,191.3000030517578 C-116.6500015258789,191.3000030517578 -105.6500015258789,193.60000610351562 -105.6500015258789,193.60000610351562 C-105.6500015258789,193.60000610351562 -82.9000015258789,180.6999969482422 -78.6500015258789,176.4499969482422 C-74.3740005493164,172.1739959716797 -35.75,138.25 -35.75,138.25 C-35.75,138.25 -13.446399688720703,121.4917984008789 -0.5,119.5 C8.274999618530273,118.1500015258789 30.174999237060547,132.14999389648438 30.174999237060547,132.14999389648438 C30.174999237060547,132.14999389648438 84.30000305175781,166.10000610351562 98.57499694824219,168.125 C108.47879791259766,169.7052001953125 111.5,165.8249969482422 111.5,165.8249969482422 C111.5,165.8249969482422 67,113.75 67,113.75 C67,113.75 30,-88 30,-88 C30,-88 13.850000381469727,-208 13.850000381469727,-208z"/><g opacity="1" transform="matrix(1,0,0,1,0,0)"/></g><g style="display: none;"><g><path fill="url(#__lottie_element_58)"/></g></g><g style="display: none;"><g><path fill="url(#__lottie_element_54)"/></g></g><g style="display: none;"><g><path fill="url(#__lottie_element_50)"/></g></g><g style="display: block;" transform="matrix(1,0,0,1,49,45.5)" opacity="1"><g opacity="1" transform="matrix(1,0,0,1,206.91000366210938,198.0590057373047)"><path fill="url(#__lottie_element_46)" fill-opacity="1" d=" M15.994500160217285,20.937999725341797 C-19.576000213623047,39.55860137939453 -82.01000213623047,66.14099884033203 -97.52050018310547,94.98200225830078 C-106.7782974243164,109.70929718017578 -109.46499633789062,124.77059936523438 -114.64900207519531,146.00900268554688 C-120.89540100097656,171.68780517578125 -126.9397964477539,193.22079467773438 -114.65080261230469,203.23880004882812 C-105.23380279541016,210.914794921875 -91.28919982910156,204.57730102539062 -82.8280029296875,198.50050354003906 C-59.110198974609375,181.40370178222656 -18.360000610351562,144.66600036621094 3.672499895095825,133.96949768066406 C17.2091007232666,127.39720153808594 27.25029945373535,137.3321075439453 39.29899978637695,143.92730712890625 C39.29899978637695,143.92730712890625 69.65869903564453,161.88980102539062 69.65869903564453,161.88980102539062 C82.81929779052734,169.93789672851562 99.06900024414062,182.3155975341797 108.0425033569336,182.3524932861328 C124.57879638671875,181.79710388183594 129.04330444335938,164.76910400390625 124.07450103759766,142.00799560546875 C120.40470123291016,126.62570190429688 111.05770111083984,96.08329772949219 106.75170135498047,68.59729766845703 C105.1156997680664,58.15230178833008 103.87200164794922,51.06650161743164 105.16200256347656,47.78150177001953 C108.18800354003906,40.06650161743164 117.3125991821289,32.4026985168457 128.7530059814453,19.945999145507812 C141.8032989501953,6.660699844360352 159.02569580078125,-7.564499855041504 170.07249450683594,-21.684200286865234 C174.00680541992188,-26.510799407958984 180.8350067138672,-33.80950164794922 180.45399475097656,-40.73149871826172 C179.87899780273438,-51.201499938964844 172.27439880371094,-57.060699462890625 160.2310028076172,-58.68949890136719 C145.093505859375,-60.763301849365234 80.16950225830078,-66.17400360107422 74.45050048828125,-68.54299926757812 C68.96649932861328,-70.94999694824219 64.86959838867188,-75.17050170898438 59.62900161743164,-92.03099822998047 C50.02199935913086,-121.32240295410156 43.087501525878906,-144.2740020751953 32.06650161743164,-172.74549865722656 C26.441099166870117,-189.34649658203125 20.080900192260742,-196.23399353027344 8.329999923706055,-196.57150268554688 C-4.8420000076293945,-196.95309448242188 -10.743000030517578,-187.11000061035156 -16.4060001373291,-170.62899780273438 C-22.729000091552734,-150.34500122070312 -40.724998474121094,-104.49849700927734 -49.654998779296875,-83.6865005493164 C-53.387001037597656,-75.25849914550781 -59.7599983215332,-74.3395004272461 -67.77100372314453,-74.00650024414062 C-99.21649932861328,-72.83209991455078 -147.72300720214844,-75.9365005493164 -175.98300170898438,-72.88150024414062 C-190.2100067138672,-71.34549713134766 -201.91000366210938,-65.50550079345703 -200.4510040283203,-48.204498291015625 C-199.8280029296875,-40.80350112915039 -195.1114959716797,-32.25600051879883 -188.19749450683594,-27.089000701904297 C-172.67149353027344,-13.6850004196167 -137.03500366210938,17.018999099731445 -116.61799621582031,21.242000579833984 C-102.88899993896484,24.084999084472656 -95.70999908447266,24.231000900268555 -78.21700286865234,21.1200008392334 C-60.7239990234375,18.009000778198242 -34.85770034790039,12.122699737548828 -6.35099983215332,6.682000160217285 C7.703800201416016,4.000800132751465 23.480499267578125,-0.4819999933242798 27.013500213623047,6.670000076293945 C29.220500946044922,11.142000198364258 26.37849998474121,16.47100067138672 15.994500160217285,20.937999725341797z"/></g></g><g style="display: block;" transform="matrix(1,0,0,1,49,45.5)" opacity="1"><g opacity="1" transform="matrix(1,0,0,1,206.91000366210938,198.0590057373047)"><path fill="url(#__lottie_element_40)" mask="url(#__lottie_element_42)" fill-opacity="1" d="M0 0 M15.994500160217285,20.937999725341797 C-19.576000213623047,39.55860137939453 -82.01000213623047,66.14099884033203 -97.52050018310547,94.98200225830078 C-106.7782974243164,109.70929718017578 -109.46499633789062,124.77059936523438 -114.64900207519531,146.00900268554688 C-120.89540100097656,171.68780517578125 -126.9397964477539,193.22079467773438 -114.65080261230469,203.23880004882812 C-105.23380279541016,210.914794921875 -91.28919982910156,204.57730102539062 -82.8280029296875,198.50050354003906 C-59.110198974609375,181.40370178222656 -18.360000610351562,144.66600036621094 3.672499895095825,133.96949768066406 C17.2091007232666,127.39720153808594 27.25029945373535,137.3321075439453 39.29899978637695,143.92730712890625 C39.29899978637695,143.92730712890625 69.65869903564453,161.88980102539062 69.65869903564453,161.88980102539062 C82.81929779052734,169.93789672851562 99.06900024414062,182.3155975341797 108.0425033569336,182.3524932861328 C124.57879638671875,181.79710388183594 129.04330444335938,164.76910400390625 124.07450103759766,142.00799560546875 C120.40470123291016,126.62570190429688 111.05770111083984,96.08329772949219 106.75170135498047,68.59729766845703 C105.1156997680664,58.15230178833008 103.87200164794922,51.06650161743164 105.16200256347656,47.78150177001953 C108.18800354003906,40.06650161743164 117.3125991821289,32.4026985168457 128.7530059814453,19.945999145507812 C141.8032989501953,6.660699844360352 159.02569580078125,-7.564499855041504 170.07249450683594,-21.684200286865234 C174.00680541992188,-26.510799407958984 180.8350067138672,-33.80950164794922 180.45399475097656,-40.73149871826172 C179.87899780273438,-51.201499938964844 172.27439880371094,-57.060699462890625 160.2310028076172,-58.68949890136719 C145.093505859375,-60.763301849365234 80.16950225830078,-66.17400360107422 74.45050048828125,-68.54299926757812 C68.96649932861328,-70.94999694824219 64.86959838867188,-75.17050170898438 59.62900161743164,-92.03099822998047 C50.02199935913086,-121.32240295410156 43.087501525878906,-144.2740020751953 32.06650161743164,-172.74549865722656 C26.441099166870117,-189.34649658203125 20.080900192260742,-196.23399353027344 8.329999923706055,-196.57150268554688 C-4.8420000076293945,-196.95309448242188 -10.743000030517578,-187.11000061035156 -16.4060001373291,-170.62899780273438 C-22.729000091552734,-150.34500122070312 -40.724998474121094,-104.49849700927734 -49.654998779296875,-83.6865005493164 C-53.387001037597656,-75.25849914550781 -59.7599983215332,-74.3395004272461 -67.77100372314453,-74.00650024414062 C-99.21649932861328,-72.83209991455078 -147.72300720214844,-75.9365005493164 -175.98300170898438,-72.88150024414062 C-190.2100067138672,-71.34549713134766 -201.91000366210938,-65.50550079345703 -200.4510040283203,-48.204498291015625 C-199.8280029296875,-40.80350112915039 -195.1114959716797,-32.25600051879883 -188.19749450683594,-27.089000701904297 C-172.67149353027344,-13.6850004196167 -137.03500366210938,17.018999099731445 -116.61799621582031,21.242000579833984 C-102.88899993896484,24.084999084472656 -95.70999908447266,24.231000900268555 -78.21700286865234,21.1200008392334 C-60.7239990234375,18.009000778198242 -34.85770034790039,12.122699737548828 -6.35099983215332,6.682000160217285 C7.703800201416016,4.000800132751465 23.480499267578125,-0.4819999933242798 27.013500213623047,6.670000076293945 C29.220500946044922,11.142000198364258 26.37849998474121,16.47100067138672 15.994500160217285,20.937999725341797z"/></g></g><g style="display: none;"><path/><g/></g></g></svg>